<svg width="128" height="32" xmlns="http://www.w3.org/2000/svg">
  <!-- 프레임 1 (x=0) -->
  <g transform="translate(0, 0)">
    <!-- 적 몸체 -->
    <circle cx="16" cy="16" r="12" fill="#e74c3c"/>
    <!-- 눈 -->
    <circle cx="12" cy="12" r="3" fill="#ffffff"/>
    <circle cx="20" cy="12" r="3" fill="#ffffff"/>
    <circle cx="12" cy="12" r="1" fill="#2c3e50"/>
    <circle cx="20" cy="12" r="1" fill="#2c3e50"/>
    <!-- 입 -->
    <path d="M10,20 Q16,16 22,20" stroke="#2c3e50" stroke-width="2" fill="none"/>
    <!-- 뿔 -->
    <path d="M10,6 L14,12" stroke="#2c3e50" stroke-width="2" fill="none"/>
    <path d="M22,6 L18,12" stroke="#2c3e50" stroke-width="2" fill="none"/>
  </g>
  
  <!-- 프레임 2 (x=32) -->
  <g transform="translate(32, 0)">
    <!-- 적 몸체 -->
    <circle cx="16" cy="16" r="12" fill="#e74c3c"/>
    <!-- 눈 -->
    <circle cx="12" cy="12" r="3" fill="#ffffff"/>
    <circle cx="20" cy="12" r="3" fill="#ffffff"/>
    <circle cx="12" cy="12" r="1" fill="#2c3e50"/>
    <circle cx="20" cy="12" r="1" fill="#2c3e50"/>
    <!-- 입 -->
    <path d="M10,19 Q16,15 22,19" stroke="#2c3e50" stroke-width="2" fill="none"/>
    <!-- 뿔 -->
    <path d="M10,5 L14,11" stroke="#2c3e50" stroke-width="2" fill="none"/>
    <path d="M22,5 L18,11" stroke="#2c3e50" stroke-width="2" fill="none"/>
    <!-- 팔 -->
    <path d="M8,16 L4,20" stroke="#e74c3c" stroke-width="3" fill="none"/>
    <path d="M24,16 L28,20" stroke="#e74c3c" stroke-width="3" fill="none"/>
  </g>
  
  <!-- 프레임 3 (x=64) -->
  <g transform="translate(64, 0)">
    <!-- 적 몸체 -->
    <circle cx="16" cy="16" r="12" fill="#e74c3c"/>
    <!-- 눈 -->
    <circle cx="12" cy="12" r="3" fill="#ffffff"/>
    <circle cx="20" cy="12" r="3" fill="#ffffff"/>
    <circle cx="12" cy="12" r="1" fill="#2c3e50"/>
    <circle cx="20" cy="12" r="1" fill="#2c3e50"/>
    <!-- 입 -->
    <path d="M10,20 Q16,16 22,20" stroke="#2c3e50" stroke-width="2" fill="none"/>
    <!-- 뿔 -->
    <path d="M10,6 L14,12" stroke="#2c3e50" stroke-width="2" fill="none"/>
    <path d="M22,6 L18,12" stroke="#2c3e50" stroke-width="2" fill="none"/>
  </g>
  
  <!-- 프레임 4 (x=96) -->
  <g transform="translate(96, 0)">
    <!-- 적 몸체 -->
    <circle cx="16" cy="16" r="12" fill="#e74c3c"/>
    <!-- 눈 -->
    <circle cx="12" cy="12" r="3" fill="#ffffff"/>
    <circle cx="20" cy="12" r="3" fill="#ffffff"/>
    <circle cx="12" cy="12" r="1" fill="#2c3e50"/>
    <circle cx="20" cy="12" r="1" fill="#2c3e50"/>
    <!-- 입 -->
    <path d="M10,19 Q16,15 22,19" stroke="#2c3e50" stroke-width="2" fill="none"/>
    <!-- 뿔 -->
    <path d="M10,5 L14,11" stroke="#2c3e50" stroke-width="2" fill="none"/>
    <path d="M22,5 L18,11" stroke="#2c3e50" stroke-width="2" fill="none"/>
    <!-- 팔 (반대 방향) -->
    <path d="M8,16 L4,12" stroke="#e74c3c" stroke-width="3" fill="none"/>
    <path d="M24,16 L28,12" stroke="#e74c3c" stroke-width="3" fill="none"/>
  </g>
</svg> 